Patient4_TMGait_0pt3_03_right_11_EMG.mot
version=1
nRows=26
nColumns=33
inDegrees=no
endheader
time	1LAddLong	2LGlutMax	3LGlutMed	4LIliopsoas	5LSemiMemb	6LBicFemLong	7LRecFem	8LVastMed	9LVastLat	10LGasMed	11LTibAnt	12lTibPost	13LPeroneusLong	14LSol	15LExtDigLong	16LFlexDigLong	17RAddLong	18RGlutMax	19RGlutMed	20RIliopsoas	21RSemiMemb	22RBicFemLong	23RRecFem	24RVastMed	25RVastLat	26RGasMed	27RTibAnt	28RTibPost	29RPeroneusLong	30RSol	31RExtDigLong	32RFlexDigLong
22.835	-0.005493	-0.00351	0.08194	-0.009003	0.006714	-0.17593	-0.16419	0.006866	0.35263	0.004272	-0.005188	-0.083771	0.12848	-0.39841	0.049133	-0.041656	-0.013428	0.07019	-0.16403	0.20142	0.044708	0.000153	0.054474	-0.002136	-0.001831	-0.008087	-0.2124	-0.018768	-0.047607	0.047913	-0.001526	-0.008545
22.836	-0.001526	0.023804	0.05249	0.010834	0.002899	-0.11871	-0.24963	0.008087	0.383	0.000153	-0.001526	0.079346	-0.093384	-0.52399	0.023499	-0.028381	-0.008087	0.078278	-0.16434	0.23132	0.045471	-0.002441	0.081635	0.041809	-0.012207	-0.010681	-0.36087	-0.022125	-0.041504	0.14694	-0.00351	-0.000305
22.837	0.002441	0.041809	-0.004272	-0.002899	0.00885	-0.14648	-0.3183	0.002594	0.43304	0.001678	-0.006409	0.001068	-0.16342	-0.23224	-0.039215	-0.022125	-0.010071	0.007935	-0.19821	0.15259	0.045776	0.005493	0.069733	-0.017853	0.008087	-0.008545	-0.034637	-0.02182	-0.058289	0.20645	-0.002747	0.000763
22.838	-0.006866	0.055389	-0.09491	0.001984	-0.007782	-0.09491	-0.22812	0.032043	0.35233	-0.004272	0.012512	0.07782	-0.070953	0.097504	-0.042572	-0.010834	-0.010681	0.043488	-0.085754	0.10086	0.041199	0.009155	0.046997	-0.066833	0.005188	-0.00824	0.25665	-0.019684	-0.10391	0.1239	0.003967	-0.000763
22.839	-0.010986	0.03006	-0.042267	0.010223	0.006714	-0.014648	-0.081482	0.015411	0.17532	-0.003357	0.006409	-0.019379	-0.023041	0.18631	-0.016022	-0.018768	-0.019836	0.048523	-0.062866	0.045166	0.032196	0.027161	0.057983	-0.072021	0.000153	-0.00946	0.58289	-0.02121	-0.18265	0.011444	-0.001526	0.010681
22.84	-0.015259	0.054626	-0.14633	0.004425	0.00473	0.031738	0.023651	0.000763	-0.14038	-0.012054	-0.001678	-0.045319	0.027008	0.17548	-0.005341	-0.00885	-0.029602	0.049896	-0.036316	-0.026855	0.023804	0.016632	0.041809	-0.075378	-0.01709	-0.00946	0.9787	-0.020447	-0.25803	-0.064392	-0.001984	-0.005341
22.841	-0.010071	0.07019	-0.003357	0.015411	0.003815	0.060577	0.11017	0.002899	-0.18341	-0.00412	-0.003662	-0.042267	0.054474	0.08194	-0.009918	-0.013885	-0.027924	0.062714	-0.007477	-0.095367	0.007172	0.028229	0.004272	-0.070343	0.000763	-0.009918	1.0466	-0.021667	-0.20157	-0.048218	0.002289	-0.00351
22.842	-0.009003	0.057526	0.011749	-0.005341	0.000763	0.097351	0.1059	0.004883	-0.17853	-0.00351	-0.001373	-0.046997	0.080414	-0.027161	0.00061	-0.024567	-0.018921	0.002594	-0.048828	-0.010223	0.021667	0.017395	0.02533	-0.019836	-0.001678	-0.008392	0.6221	-0.018158	-0.22461	-0.055389	-0.003357	-0.011292
22.843	-0.003967	0.065613	-0.00412	-0.001526	0.016327	0.057068	0.076904	0.028839	-0.28046	-0.001068	-0.007019	-0.053558	0.048676	-0.016174	-0.002899	-0.039673	-0.016937	-0.027313	0.12589	0.062408	0.018158	0.029602	0.016937	-0.010681	0.018311	-0.001373	0.095673	-0.015259	-0.001373	-0.11032	-0.004272	-0.001526
22.844	0.014648	0.13626	-0.085297	-0.003357	0.011292	0.045013	0.077362	0.034943	-0.36835	0.009918	-0.00412	-0.058899	0.045319	-0.000763	0.02655	-0.038147	-0.007019	-0.005035	-0.037537	0.1152	0.023041	0.029449	0.037079	0.018005	0.012512	-0.002899	-0.64133	-0.024109	0.17975	-0.14908	0.000305	-0.010986
22.845	0.007477	0.15579	-0.066223	0.007019	0.038605	0.036469	0.04715	0.027924	-0.25375	0.005798	-0.009155	-0.055695	0.04303	-0.012207	0.034637	-0.046692	0.007629	0.001678	0.11475	0.084534	0.032501	0.014191	0.02182	0.009308	0.005035	-0.011597	-0.38605	-0.027161	0.19119	-0.14236	0.000153	-0.009308
22.846	0.019836	0.19089	0.036011	0.00885	0.018463	-0.001526	0.067444	0.011444	-0.076447	-0.019226	-0.004272	-0.06485	0.011292	0.015106	0.020447	-0.042267	0.035706	0.059357	0.74646	-0.023346	0.017395	0.012207	0.024567	0.000763	0.00412	-0.003967	-0.29724	-0.018311	0.1413	-0.085297	-0.000763	-0.005951
22.847	0.019226	0.18158	0.15762	0.021057	0.015259	0.007172	0.15411	-0.010223	-0.053711	-0.000153	0.009003	-0.067444	-0.023193	0.054779	-0.001678	-0.033722	0.05661	0.039825	0.41519	-0.06546	-0.00061	-0.014954	-0.000763	0.014954	-0.015106	0	-0.93964	-0.022888	0.26077	-0.038452	-0.001678	-0.007172
22.848	0.004272	0.15762	0.13733	0.039825	0.001984	0.036469	0.14633	0.002441	-0.10605	0.011444	0.019684	-0.081329	-0.031738	0.043945	-0.002441	-0.030975	0.066528	0.048828	-0.15945	-0.057831	-0.003357	-0.007019	0.031891	0.006256	-0.003967	-0.008087	-0.63294	-0.023346	0.12482	0.083618	-0.003357	-0.015564
22.849	0.001373	0.12329	0.15274	0.017395	0.002289	0.069733	0.035248	0.012054	-0.16022	0.011749	0.02655	-0.077515	0.01236	0.059357	0.005341	-0.020905	0.062561	0.036621	-0.027466	-0.045776	0.007324	-0.010223	0.049591	-0.046234	0.000916	-0.01709	-0.40207	-0.02182	-0.040588	0.11261	-0.000305	-0.024414
22.85	0.00061	0.051117	0.005646	0.00061	0.01236	0.1149	-0.042267	0.023804	-0.11932	0.012054	0.025787	-0.08255	-0.020905	0.03479	-0.005798	-0.006561	0.083008	-0.019073	0.036011	-0.090179	-0.001831	-0.00473	0.022583	-0.079956	-0.001221	-0.009613	-0.12299	-0.019989	0.062103	0.033569	-0.00473	-0.017548
22.851	0.012054	0.090332	-0.11597	-0.019226	0.013123	0.092468	-0.077667	0.009613	-0.061646	0.002899	0.007019	-0.075684	-0.002594	0.015564	0.011749	0.001373	0.042877	-0.02182	0.103	-0.037537	0.00473	0.005341	0.018768	-0.060577	-0.013733	-0.006256	-0.14984	-0.016785	0.21042	-0.063782	-0.00061	-0.013275
22.852	0.015106	0.028229	-0.15976	-0.023651	0.018616	-0.028992	-0.019073	0.001068	0.006714	0.012817	0.005188	-0.07431	0.013123	0.022888	-0.000916	0.007935	0.020599	-0.032806	-0.047607	0.053253	-0.001678	0.001831	0.030365	-0.043945	-0.001984	0.011139	-0.31418	-0.01709	0.26443	-0.055847	-0.000153	-0.005951
22.853	0.018463	0.035248	-0.043945	0.002899	0.011139	-0.10284	-0.09201	0.011139	0.041046	0.005798	0.00824	-0.075531	-0.002899	0.027008	0.011902	0.040283	0.019684	-0.000153	-0.18875	-0.010529	0.003662	0.00885	0.028076	-0.050354	-0.003967	-0.01236	-0.48248	-0.023346	0.15823	0.13519	-0.001984	-0.010223
22.854	0.013275	-0.069275	0.059967	-0.001221	0.009308	-0.051575	-0.05722	0.030365	0.04425	0.010529	-0.007782	-0.071869	-0.00061	0.015869	0.014496	0.033875	-0.014343	0.039368	-0.1712	-0.16846	0.006866	0.023956	0.016632	-0.053864	0.003662	-0.010223	-0.35736	-0.02121	0.25192	0.22949	0.002441	-0.014648
22.855	0.014496	-0.051117	0.068359	0.014801	0.012817	-0.046082	-0.054169	0.046082	0.031433	0.014496	-0.021057	-0.067596	-0.009918	0.020294	0.007172	0.005341	-0.037231	0.051727	-0.25207	-0.1944	0.012665	0.038147	0.00412	-0.03418	0.027008	0.002289	-0.2536	-0.015106	0.029449	0.005188	-0.001068	-0.014496
22.856	0.015411	-0.16968	0.018311	-0.007019	0.014191	-0.053253	0.00061	0.07019	0.030365	0.011444	-0.019836	-0.063477	-0.005646	0.020599	0.014496	-0.009003	-0.064697	0.029907	-0.077972	-0.17166	0.024567	0.054474	-0.007324	-0.00061	0.015259	0.00824	0.11261	-0.014191	-0.112	-0.092468	-0.000916	-0.016632
22.857	0.015717	-0.24017	-0.020752	0.008698	0.017548	0.01236	0.004578	0.058899	0.011292	0.007019	-0.015259	-0.06546	-0.002747	0.030823	0.005035	-0.0177	-0.078888	-0.019073	-0.050812	-0.12543	0.020905	0.083771	0.002594	-0.001068	0.011139	0.006714	0.50522	-0.017395	0.039063	-0.066681	-0.001831	-0.023193
22.858	0.023651	-0.28549	-0.060425	-0.004272	0.007782	0.06485	-0.072632	0.032806	-0.033569	0.010834	-0.010681	-0.06958	0.006714	-0.004578	0.003052	-0.016785	-0.051117	-0.042114	-0.20371	0.1648	0.00946	0.11154	0.0177	-0.016174	0.024872	0.009003	0.44708	-0.015717	0.068207	-0.063934	-0.001678	-0.022888
22.859	0.012817	-0.27008	0.009766	-0.007935	0.013123	0.071564	-0.13886	0.008545	-0.028992	0.004272	-0.001831	-0.060272	0.004578	0.032196	-0.008392	-0.006561	-0.0177	-0.018158	0.021515	0.31677	-0.012817	0.095673	-0.009308	-0.033112	0.023956	0.019684	0.009918	-0.016479	0.017548	-0.067596	-0.004883	-0.010681
22.86	0.009766	-0.28915	0.014038	-0.01297	0.010834	0.040283	-0.18631	-0.001678	0.03006	0.009766	-0.005035	-0.051117	0.010681	0.018311	0.003204	-0.000763	-0.018311	-0.021057	0.055847	0.36682	-0.019989	0.079346	-0.00946	-0.00885	0.009766	0.02121	-0.63904	-0.019073	0.061951	-0.090637	0.003662	-0.019379
